# xmcd
#
# Track frame offsets:
#	150
#	17794
#	29949
#	43618
#	55462
#	67598
#	81324
#	91890
#	104863
#	116730
#	129892
#	140576
#	151543
#	161480
#	173901
#	180599
#	192162
#	209374
#	220667
#	234932
#	250299
#	254732
#	268435
#	286820
#	303741
#
# Disc length: 4233 seconds
#
# Revision: 2
# Processed by: cddbd v1.5.2PL0 Copyright (c) Steve Scherf et al.
# Submitted via: EZCDAudioConverter 2.1.7.1
#
DISCID=71108719
DTITLE=Blossom Toes - We Are Ever So Clean
DYEAR=1967
DGENRE=
TTITLE0=Look At Me I'm You
TTITLE1=I'll Be Late For Tea
TTITLE2=The Remarkable Saga Of The Frozen Dog
TTITLE3=Telegram Tuesday
TTITLE4=Love Is
TTITLE5=What's It For?
TTITLE6=People Of The Royal Parks
TTITLE7=What On Earth
TTITLE8=Mrs. Murphy's Budgerigar
TTITLE9=I Will Bring You This And That
TTITLE10=Mister Watchmaker
TTITLE11=When The Alarm Clock Rings
TTITLE12=The Intrepid Balloonist's Handbook, Volume One
TTITLE13=You
TTITLE14=Track For Speedy Freaks (Or Instant LP Digest)
TTITLE15=Everybody's Talking
TTITLE16=Look At Me I'm You
TTITLE17=I'll Be Late For Tea
TTITLE18=Mister Watchmaker
TTITLE19=I'll Be Your Baby Tonight
TTITLE20=Jim Cregan Interview
TTITLE21=Love Is
TTITLE22=Collects Little Girls
TTITLE23=Hometime
TTITLE24=Looking Up I'm Looking Back
EXTD=
EXTT0=
EXTT1=
EXTT2=
EXTT3=
EXTT4=
EXTT5=
EXTT6=
EXTT7=
EXTT8=
EXTT9=
EXTT10=
EXTT11=
EXTT12=
EXTT13=
EXTT14=
EXTT15=
EXTT16=
EXTT17=
EXTT18=
EXTT19=
EXTT20=
EXTT21=
EXTT22=
EXTT23=
EXTT24=
PLAYORDER=
